int melody[] = {
NOTE_D5,  NOTE_A5,  NOTE_A5,  NOTE_A5,  NOTE_D5,
NOTE_D5,  NOTE_A5,  NOTE_A5,  NOTE_A5,  NOTE_D5,
NOTE_A5,  NOTE_AS5, NOTE_C7,  NOTE_A5,
NOTE_D7,  NOTE_C7,  NOTE_C7,  NOTE_AS5, NOTE_AS5, NOTE_A5, NOTE_A5, NOTE_G5,
NOTE_F5,  NOTE_G5,  NOTE_C7,  NOTE_A5,
NOTE_D5,  NOTE_C5,  NOTE_D5,  NOTE_E5,  NOTE_F5, NOTE_E5, NOTE_F5, NOTE_G5,
NOTE_A5,  NOTE_C7,  NOTE_AS5, NOTE_A5,  NOTE_G5, NOTE_F5, NOTE_E5, NOTE_D5,
NOTE_C5,  NOTE_G5,  NOTE_G5,  NOTE_G5,  NOTE_A7,
NOTE_AS5, NOTE_A5,  NOTE_G5,  NOTE_F5,  NOTE_G5,
NOTE_A5,  NOTE_G5,  NOTE_F5,  NOTE_E5,  NOTE_F5,
NOTE_G5,  NOTE_F5,  NOTE_E5,  NOTE_D5,
NOTE_AS5, NOTE_A5,  NOTE_A5,  NOTE_G5,  NOTE_G5, NOTE_F5, NOTE_F5, NOTE_E5,
NOTE_A5,  NOTE_G5,  NOTE_G5,  NOTE_F5,  NOTE_F5, NOTE_E5, NOTE_E5, NOTE_D5,
NOTE_F5,  NOTE_F5,  NOTE_G5,  NOTE_A5
};
int noteDurations[] = {
4, 8, 8, 4, 4,
4, 8, 8, 4, 4,
4, 8, 8, 2,
8, 8, 8, 8, 8, 8, 8, 8,
4, 8, 8, 2,
8, 8, 8, 8, 8, 8, 8, 8,
8, 8, 8, 8, 8, 8, 8, 8,
4, 8, 8, 4, 4,
4, 8, 8, 4, 4,
4, 8, 8, 4, 4,
4, 8, 8, 2,
8, 8, 8, 8, 8, 8, 8, 8,
8, 8, 8, 8, 8, 8, 8, 8,
4, 8, 8, 2
};
